<svg viewBox="0 0 1280 111" fill="none">
<path id="light-wave" fillRule="evenodd" clipRule="evenodd" d="M0,0L53,4.17052C107,8.34104,213,16.6821,320,30.7977C427,45.2341,533,65.7659,640,69.9364C747,74.1069,853,61.5954,960,57.7457C1067,53.5751,1173,57.7457,1227,59.6705L1280,61.5954V111H1227C1173,111,1067,111,960,111C853,111,747,111,640,111C533,111,427,111,320,111C213,111,107,111,53,111H0V0Z" fill="#20DF7F" fillOpacity="0.8">
<animate
  id='first-animate'
  attributeName="d"
  values="M0,0L53,4.17052C107,8.34104,213,16.6821,320,30.7977C427,45.2341,533,65.7659,640,69.9364C747,74.1069,853,61.5954,960,57.7457C1067,53.5751,1173,57.7457,1227,59.6705L1280,61.5954L1280,111L1227,111C1173,111,1067,111,960,111C853,111,747,111,640,111C533,111,427,111,320,111C213,111,107,111,53,111L0,111L0,0Z;
                  M0,0L53,4.17052C107,8.34104,230.755857,-0.440508,337.755857,13.675092C444.755857,28.111492,596.921085,66.323334,703.921085,70.493834C810.921085,74.664334,863.653514,41.199268,970.653514,37.349568C1077.653514,33.178968,1173,57.7457,1227,59.6705L1280,61.5954L1280,111L1227,111C1173,111,1067,111,960,111C853,111,747,111,640,111C533,111,427,111,320,111C213,111,107,111,53,111L0,111L0,0Z;
                  M0,0L53,4.17052C107,8.34104,360.176326,-9.94508,467.176326,4.17052C574.176326,18.60692,653.739827,66.323333,760.739827,70.493833C867.739827,74.664333,942.568434,45.934162,1049.568434,42.084462C1156.568434,37.913862,1173,48.051154,1227,49.975954L1280,61.024043L1280,111L1227,111C1173,111,1067,111,960,111C853,111,747,111,640,111C533,111,427,111,320,111C213,111,107,111,53,111L0,111L0,0Z;
                  M0,42.67988L201.641937,42.67988C255.641937,46.8504,405,-14.1156,512,0C619,14.4364,748.217241,66.203249,855.217241,70.373749C962.217241,74.544249,995.615802,22.528227,1102.615802,18.678527C1226.672171,16.862094,1288.721831,60.467446,1280,55.5L1280,61.5954L1280,111L1227,111C1173,111,1067,111,960,111C853,111,747,111,640,111C533,111,427,111,320,111C213,111,107,111,53,111L0,111L0,42.67988Z;
                  M0,0L53,4.17052C107,8.34104,213,16.6821,320,30.7977C427,45.2341,533,65.7659,640,69.9364C747,74.1069,853,61.5954,960,57.7457C1067,53.5751,1173,57.7457,1227,59.6705L1280,61.5954L1280,111L1227,111C1173,111,1067,111,960,111C853,111,747,111,640,111C533,111,427,111,320,111C213,111,107,111,53,111L0,111L0,0Z;"
  begin='click'
  dur="4s"
  repeatCount='indefinite'
></animate>
</path>
<path id="dark-wave" fillRule="evenodd" clipRule="evenodd" d="M0,44.4L42.6667,53.28C85.3333,62.16,170.667,79.92,256,75.48C341.333,71.04,426.667,44.4,512,26.64C597.333,8.88,682.667,0,768,0C853.333,0,938.667,8.88,1024,24.42C1109.33,39.96,1194.67,62.16,1237.33,73.26L1280,84.36L1280,111L1237.33,111C1194.67,111,1109.33,111,1024,111C938.667,111,853.333,111,768,111C682.667,111,597.333,111,512,111C426.667,111,341.333,111,256,111C170.667,111,85.3333,111,42.6667,111L0,111L0,44.4Z" fill="#224957" fillOpacity="0.8">
<animate
  id='second-animate'
  attributeName="d"
  values="M0,44.4L42.6667,53.28C85.3333,62.16,170.667,79.92,256,75.48C341.333,71.04,426.667,44.4,512,26.64C597.333,8.88,682.667,0,768,0C853.333,0,938.667,8.88,1024,24.42C1109.33,39.96,1194.67,62.16,1237.33,73.26L1280,84.36L1280,111L1237.33,111C1194.67,111,1109.33,111,1024,111C938.667,111,853.333,111,768,111C682.667,111,597.333,111,512,111C426.667,111,341.333,111,256,111C170.667,111,85.3333,111,42.6667,111L0,111L0,44.4Z;
                  M0,0L66.130692,26.64C108.797292,35.52,170.667,59.94,256,55.5C341.333,51.06,324.152235,33.893959,409.485235,16.133959C494.818235,-1.626041,501.427678,0,586.760678,0C672.093678,0,805.595018,57.72,890.928018,73.26C976.105628,89.561951,1078.243801,58.762006,1126.051238,44.124819L1280,16.133959L1280,111L1237.33,111C1194.67,111,1109.33,111,1024,111C938.667,111,853.333,111,768,111C682.667,111,597.333,111,512,111C426.667,111,341.333,111,256,111C170.667,111,85.3333,111,42.6667,111L0,111L0,0Z;
                  M0,44.4L42.6667,53.28C85.3333,62.16,170.667,79.92,256,75.48C341.333,71.04,426.667,44.4,512,26.64C597.333,8.88,682.667,0,768,0C853.333,0,938.667,8.88,1024,24.42C1109.33,39.96,1194.67,62.16,1237.33,73.26L1280,84.36L1280,111L1237.33,111C1194.67,111,1109.33,111,1024,111C938.667,111,853.333,111,768,111C682.667,111,597.333,111,512,111C426.667,111,341.333,111,256,111C170.667,111,85.3333,111,42.6667,111L0,111L0,44.4Z;"
  begin='click'
  dur="4s"
  repeatCount='indefinite'
></animate>
</path>
  </svg>
